<svg width="38" height="29" viewBox="0 0 38 29" fill="none" xmlns="http://www.w3.org/2000/svg">
<path d="M10.9485 0.637651C9.87605 1.04812 9.00233 1.88948 8.51922 2.97695C8.03612 4.06443 7.98312 5.30911 8.37188 6.43765L15.0274 25.6276C15.4176 26.7556 16.2176 27.6746 17.2515 28.1827C18.2855 28.6908 19.4689 28.7465 20.5419 28.3377C21.6119 27.9273 22.4833 27.087 22.9647 26.0014C23.446 24.9157 23.4979 23.6735 23.109 22.5477L16.4535 3.34765C16.0633 2.21969 15.2633 1.30074 14.2294 0.792627C13.1954 0.284513 12.012 0.228773 10.939 0.637651H10.9485ZM24.4021 7.85765C23.5666 8.17785 22.8861 8.83369 22.5099 9.68115C22.1338 10.5286 22.0928 11.4984 22.3959 12.3776L27.2164 26.3076C27.5211 27.1696 28.1343 27.8719 28.925 28.2644C29.7157 28.6568 30.6211 28.7083 31.4474 28.4077C31.8711 28.2575 32.262 28.0195 32.5968 27.7078C32.9317 27.3961 33.2037 27.017 33.397 26.5929C33.5902 26.1687 33.7006 25.7081 33.7218 25.2384C33.7429 24.7686 33.6743 24.2991 33.5201 23.8577L28.6996 9.92765C28.3877 9.05622 27.761 8.34972 26.9561 7.96201C26.1511 7.5743 25.2332 7.53679 24.4021 7.85765Z" fill="#BC98F9"/>
<path d="M28.1767 24.0777L32.5693 14.1777C32.7259 13.8173 32.9489 13.4931 33.2252 13.2239C33.5016 12.9547 33.826 12.7457 34.1796 12.609C34.5332 12.4723 34.909 12.4107 35.2854 12.4276C35.6618 12.4445 36.0312 12.5397 36.3724 12.7077C36.7109 12.8769 37.0144 13.1147 37.2654 13.4074C37.5165 13.7 37.7103 14.0419 37.8356 14.4134C37.961 14.7849 38.0156 15.1787 37.9962 15.5724C37.9768 15.966 37.8838 16.3518 37.7225 16.7077L33.3585 26.6077C33.201 26.9671 32.9774 27.2903 32.7006 27.5585C32.4239 27.8267 32.0994 28.0347 31.7459 28.1704C31.3924 28.3061 31.0168 28.3669 30.6408 28.3492C30.2649 28.3316 29.896 28.2359 29.5553 28.0677C29.2144 27.9011 28.9081 27.6653 28.654 27.3738C28.4 27.0823 28.2033 26.7409 28.0752 26.3692C27.9471 25.9974 27.8901 25.6027 27.9075 25.2078C27.9249 24.8128 28.0164 24.4253 28.1767 24.0677V24.0777ZM21.7304 9.75766L16.0257 22.6577C15.813 23.1389 15.6935 23.6599 15.6741 24.1902C15.6548 24.7205 15.736 25.2496 15.913 25.7466C16.0899 26.2436 16.3592 26.6986 16.705 27.085C17.0508 27.4715 17.4663 27.7817 17.9273 27.9977C18.3848 28.2213 18.8802 28.347 19.3844 28.3674C19.8886 28.3877 20.3916 28.3024 20.8642 28.1162C21.3367 27.9301 21.7693 27.6469 22.1367 27.2832C22.5042 26.9195 22.7991 26.4825 23.0044 25.9977L28.7091 13.1077C29.1124 12.1466 29.14 11.0572 28.786 10.0749C28.432 9.09253 27.7247 8.29611 26.8171 7.85765C26.3648 7.62916 25.874 7.49706 25.3729 7.46896C24.8719 7.44086 24.3705 7.51732 23.8977 7.69393C23.4248 7.87055 22.9899 8.14382 22.6179 8.49801C22.246 8.8522 21.9443 9.28031 21.7304 9.75766ZM10.4161 20.7577L16.368 7.25766C16.6401 6.65772 16.7969 6.00719 16.8294 5.34338C16.862 4.67956 16.7696 4.01552 16.5576 3.38934C16.3456 2.76316 16.0181 2.18715 15.594 1.69436C15.1699 1.20157 14.6575 0.801695 14.0861 0.517658C12.927 -0.00315419 11.6201 -0.0257982 10.4454 0.454586C9.27069 0.934969 8.32158 1.88017 7.80142 3.08766L1.84952 16.5777C1.69181 16.9378 1.67413 17.3484 1.80024 17.7221C1.92635 18.0957 2.18628 18.4027 2.52458 18.5777L8.60959 21.5777C8.9491 21.7208 9.32843 21.7182 9.66616 21.5705C10.0039 21.4228 10.2731 21.1418 10.4161 20.7877V20.7577ZM2.74326 28.4277L7.8965 25.5877C8.01353 25.5311 8.11842 25.4502 8.20481 25.3498C8.29121 25.2493 8.3573 25.1315 8.39909 25.0034C8.44087 24.8753 8.45748 24.7396 8.44791 24.6045C8.43833 24.4694 8.40276 24.3378 8.34337 24.2177C8.24972 24.012 8.09205 23.8461 7.8965 23.7477L1.39315 20.5977C1.27991 20.5365 1.15614 20.4998 1.02918 20.4899C0.902228 20.48 0.774668 20.497 0.654072 20.5399C0.533476 20.5828 0.422297 20.6507 0.327135 20.7397C0.231973 20.8286 0.154763 20.9367 0.100085 21.0577C-0.00434481 21.2777 -0.0280386 21.5304 0.0335301 21.7677L1.38364 27.7677C1.4151 27.9009 1.47232 28.026 1.55173 28.135C1.63114 28.244 1.73105 28.3346 1.84523 28.4012C1.95941 28.4678 2.0854 28.509 2.21537 28.5221C2.34534 28.5353 2.47649 28.5202 2.60064 28.4777H2.74326V28.4277Z" fill="#6F77EC"/>
</svg>
