<svg xmlns="http://www.w3.org/2000/svg" viewBox="0 0 2048 2048" width="512" height="512"><path transform="translate(689,32)" d="m0 0h358l18 2 19 5 21 10 14 10 10 9 11 11 7 10 4 6 44 1 18 2 20 5 16 6 19 10 14 10 10 8v2l4 2 12 13 12 17 8 14 8 20 5 19 2 13 1 15v55l-2 30-5 25-6 20-8 21-8 16 1 8 3 8 1 13h17l17 3 16 6 13 8 10 8 9 9 9 13 8 17 4 15 1 8v15l-2 15-6 18-7 13-7 9-9 10-10 8-14 8-14 5-13 3-13 1-37 1-5 22-10 30-11 24-9 16-10 15-9 12-9 11-12 13-8 8-8 7-14 11h-2v86l7 8 82 82 10 6 20 7 47 16 144 48 21 9 16 8 17 10 19 14 15 13 15 15 9 11 10 13 11 17 10 18 10 24 7 21 5 22 3 23 1 17v511l-2 21-5 19-8 20-10 18-8 11-12 14-13 12-15 11-23 12-17 6-21 5-6 1-17 1h-35v26l-2 9-5 9-7 7-11 4-15 1h-825l-11-2-8-5-5-5-5-8-2-6-1-30-44-1-21-3-15-4-20-8-15-8-14-10-13-11-9-9-13-17-9-15-7-15-5-15-4-17-2-17v-532l5-30 7-25 10-25 8-16 8-14 12-17 10-13 6-7h2l2-4 12-12 8-7 14-11 18-12 18-10 17-8 25-9 180-60 20-7 9-7 87-87 1-2v-83l-14-12-11-9-14-14-7-8-13-16-10-15-10-17-12-25-9-25-8-31h-39l-17-2-16-5-17-9-13-11-10-11-9-14-6-15-4-18v-22l4-19 6-14 9-14 9-10 8-8 14-9 13-6 15-4 8-1h18l1-13 5-13 6-9 5-6-2-5-14-26-9-17-13-30-12-34-8-29-7-34-4-28-2-21-1-22v-25l2-31 4-32 5-26 4-14z" fill="#CBEAEE"></path><path transform="translate(542,1280)" d="m0 0h967l10 5 8 8 5 10 1 12-3 32-13 120-15 141-15 140-11 105-3 29-1 23v81l-2 9-5 9-7 7-11 4-15 1h-825l-11-2-8-5-5-5-5-8-2-6v-89l-2-34-7-73-11-98-21-196-8-72-9-87-2-18v-18l3-8 7-9 9-6z" fill="#3570E2"></path><path transform="translate(689,32)" d="m0 0h358l18 2 19 5 21 10 14 10 10 9 11 11 7 10 4 6 44 1 18 2 20 5 16 6 19 10 14 10 10 8v2l4 2 12 13 12 17 8 14 8 20 5 19 2 13 1 15v55l-2 30-5 25-6 20-8 21-8 16 1 8 3 8 1 10v70l-3 15-6 12-8 10-11 8-10 5-8 2-21 1h-132l-15-2-11-4-11-7-9-9-6-10-4-13-1-7v-12h-80v11l-3 15-6 12-9 11-10 7-11 5-7 2-11 1h-143l-14-2-11-4-11-7-8-8-6-10-4-10-2-11v-75l3-12 6-12 8-10-2-5-14-26-9-17-13-30-12-34-8-29-7-34-4-28-2-21-1-22v-25l2-31 4-32 5-26 4-14z" fill="#243B85"></path><path transform="translate(710,448)" d="m0 0h18l1 68 3 14 7 14 9 10 11 7 11 4 14 2h143l15-2 12-5 9-6 5-4 9-13 4-11 2-11 1-11h80l2 19 4 13 7 11 8 8 14 8 11 3 11 1h132l21-1 13-4 11-7 7-6 9-14 4-13 1-7 1-67h17l17 3 16 6 13 8 10 8 9 9 9 13 8 17 4 15 1 8v15l-2 15-6 18-7 13-7 9-9 10-10 8-14 8-14 5-13 3-13 1-37 1-5 22-10 30-11 24-9 16-10 15-9 12-9 11-12 13-8 8-8 7-14 11h-2l-1 85-9 10-7 8-36 36-8 7-25 25-7 8-51 51-8 7-8 8-5-2-119-119-8-7v-2l-4-2-9-10-15-15-1-2-1-84-14-12-11-9-14-14-7-8-13-16-10-15-10-17-12-25-9-25-8-31h-39l-17-2-16-5-17-9-13-11-10-11-9-14-6-15-4-18v-22l4-19 6-14 9-14 9-10 8-8 14-9 13-6 15-4z" fill="#FDD2C1"></path><path transform="translate(1473,1281)" d="m0 0h39l9 6 8 9 3 7 1 12-3 32-13 120-15 141-15 140-11 105-3 29-2 6-41 1h-640l-132-1h-31l-49 1-1-2-6-76-2-32v-8l-2-3 1-6 9-1 19-1 16-1h272l64 1 2 1-1 9-1 6 21 6 18 5 6 1 6-22h2l1-6 49-1h129l37-3 29-5 15-4 24-8 18-8 13-7 16-10 14-11 16-14 5-5 3-4h2l2-4 7-9h2l2-5 8-10 11-17 12-23 10-25 7-26 6-33 6-41 3-25 8-61 5-37 6-47 3-24 1-9z" fill="#2F5EC9"></path><path transform="translate(863,895)" d="m0 0 19 19 9 10 5 5 13 12 112 112 4 1 14-14 8-7 50-50 7-8 26-26 8-7 35-35 7-8 4-4 9 10 81 81 10 6 3 3v2l3 3v2l3 1 7 9 8 6 3 4-1 5-37 37-4 5-8 7-26 26h-2l-2 4-12 12h-2l-1 3-7 6-5 6-8 7-32 32h-2l-2 4-7 7-4-2-17-16-96-96-10-8-3-3-17 16-109 109-4-2-17-16-78-78-8-7-12-12-5-3h-6l-7 3-32 10-17 6-13 4-33 11-28 11-13 6-11 6-13 7-13 9h-2v2l-5 2v2l-10 8-4 2v2h-2v2l-8 7-10 10-7 9h-2l-1 4h-2l-2 4-7 10-6 10h-2l-1 4-4 8h-2l-1 5-4 8-8 20-3 7-6 22-4 20-3 34-1 29v103h-80l-9 2-5-1-1-2-1-102v-91l5-30 7-25 10-25 8-16 8-14 12-17 10-13 6-7h2l2-4 12-12 8-7 14-11 18-12 18-10 17-8 25-9 180-60 20-7 9-7 87-87z" fill="#E6F8FB"></path><path transform="translate(576,1887)" d="m0 0h2v2l2-1 48-1h52l128 1h623l41-1v99l-2 9-5 9-7 7-11 4-15 1h-825l-11-2-8-5-5-5-5-8-2-6z" fill="#346FE1"></path><path transform="translate(384,1369)" d="m0 0h1l1 102 1 2 7-1 6-1h80l49-1 1 1 1-5h1l5 42 18 171 9 79 6 57 5 52 2 34v56l-2 3-44-1-21-3-15-4-20-8-15-8-14-10-13-11-9-9-13-17-9-15-7-15-5-15-4-17-2-17z" fill="#FEDFD0"></path><path transform="translate(1517,1471)" d="m0 0h146v151l-1 157 1 45-5 22-8 21-9 17-10 14-12 14-13 12-15 11-23 12-17 6-21 5-6 1-17 1h-35l-1-1v-54l1-23 6-59 6-57 12-110 17-161 2-19z" fill="#FDD2C1"></path><path transform="translate(896,256)" d="m0 0h273l12 5 16 8 14 9 12 9 13 11v2l4 2v2h2l18 22 11 18 8 16 8 20 5 15v3l-6-1-12-3-7-1h-154l-13 3-11 6-10 9-6 8-5 10-3 13-1 13-1 1h-79l-2-19-4-12-7-12-8-8-11-7-13-4-7-1h-158l2-5 14-15 7-8 13-14 7-8 12-14 7-7 7-8 9-10 7-8 12-13 12-14 12-12z" fill="#FCD1C0"></path><path transform="translate(1113,392)" d="m0 0h154l16 3 9 3v2l5 1 6 8 9 10 2 1 5 15 1 10v70l-3 15-6 12-8 10-11 8-10 5-8 2-21 1h-132l-15-2-11-4-11-7-9-9-6-10-4-13-2-20v-48l2-19 4-12 7-11 10-10 14-8z" fill="#243B85"></path><path transform="translate(865,820)" d="m0 0h1l2 19 2-1 2-11 4-4 4 1 17 10 14 7 9 4 21 8 10 2v2l9 1 24 6 12 1 14 1h25l25-3 25-5 16-3 10-3h3l1-2 9-2 3-1 1-2 10-4 10-5h2l2-4 12-6h2v-2l10-2 3 1 2 5 2-1v66h-2l-1 7-15 16-33 33-8 7-25 25-7 8-51 51-8 7-8 8-5-2-41-41-3-5-12-12v-2h-2v-2h-2l-7-8-5-5v-2l-2-1-1-3h-2v-2h-2l-14-16-12-12-2-1v-2l-4-2-2-4h-2l-9-11-7-8-2-1v-2l-4-2-8-7-10-10z" fill="#FBC7B4"></path><path transform="translate(1153,96)" d="m0 0h42l18 2 20 5 16 6 19 10 14 10 10 8v2l4 2 12 13 12 17 8 14 8 20 5 19 2 13 1 15v55l-2 30-5 25-6 20-8 21-9 17-4-2-11-12-5-5-2-1-5-17-8-21-8-16-8-14-8-11-11-13-2-4h-2l-6-7-11-9-15-11-13-8-16-8-11-5-4-2 3-1 1-6v-60l-1-28-2-19-4-20-7-21z" fill="#1A2F6B"></path><path transform="translate(531,1466)" d="m0 0h1l5 42 18 171 9 79 6 57 5 52 2 34v56h-1l-1-15-13-4-12-7-13-10-12-10-9-11-9-10-9-15-4-7-8-24-4-22-1-14-2-20v-66l2 3 1 4v-9l1-5 1-9 2-1 1-5v-45h3l-1-2h-2v-8h1v-18l-1-15-3 1-1-5 3-10v-1-7l1 2 4 1-4-7-4-1-1 18v29l-1 25h-1v-181l6-2 4-1 38-1 2 2 1 10 1 6-1-13z" fill="#FDD2C1"></path><path transform="translate(1056,1379)" d="m0 0 8 1 36 10 1 1-1 8-12 45-17 62-19 70-18 66-17 62-15 55-8 29-5 1-16-5-23-6-3-2 2-10 17-62 63-231 20-73 6-20z" fill="#E5F8FB"></path><path transform="translate(710,448)" d="m0 0h18l1 68 3 14 7 14 9 10 7 5-1 2-3-1-1 14v11l2 22 1 19 1 1v9l2 4h-40l-17-2-16-5-17-9-13-11-10-11-9-14-6-15-4-18v-22l4-19 6-14 9-14 9-10 8-8 14-9 13-6 15-4z" fill="#FBC7B4"></path><path transform="translate(1320,448)" d="m0 0h17l17 3 16 6 13 8 10 8 9 9 9 13 8 17 4 15 1 8v15l-2 15-6 18-7 13-7 9-9 10-10 8-14 8-14 5-13 3h-49l-1-4 2-9 2-10v-16l2-21-1-10 2-9 1-4 8-4v-3h-2l2-4 6-10 4-13 1-7z" fill="#FBC7B4"></path><path transform="translate(1155,1423)" d="m0 0 4 1 8 11 16 21 14 19 16 21 27 36 16 21 10 14 6 11v10l-7 14-14 18-60 80-14 19-12 16-7 10-4-1-13-10-11-8-10-7-1-3 3-5 10-13 72-96 12-17-1-5-10-12-10-14-13-17-48-64-14-19v-5l10-7 12-9z" fill="#E5F8FB"></path><path transform="translate(891,1423)" d="m0 0 5 2 11 9 14 10 8 6-2 5-16 21-60 80-14 19-5 6v5l14 18 14 19 16 21 14 19 10 13 12 16 14 19 2 2v6l-14 10-16 12-5 4-4-1-10-14-10-13-14-19-13-17-57-76-6-9-3-7v-10l6-12 10-13 78-104 20-26z" fill="#E5F8FB"></path><path transform="translate(1118,440)" d="m0 0h149l4 3 1 3v67l-2 5-4 2h-148l-5-4-1-2v-69l3-4z" fill="#E6F8FB"></path><path transform="translate(782,440)" d="m0 0h149l4 3 1 3v67l-2 5-4 2h-147l-5-3-2-4v-67l1-3z" fill="#E6F8FB"></path><path transform="translate(984,456)" d="m0 0h80v47l-5 1-75-1-1-42z" fill="#1A2F6B"></path><path transform="translate(1517,1471)" d="m0 0h146v151l-1 157 1 45-5 22-8 21-8 15-2-1 3-9 7-14 5-21 2-5v-62l-2-30-1-77-1-135 1-53 1-2h-134l-3 1-2 4v-6z" fill="#FFE0D1"></path><path transform="translate(384,1369)" d="m0 0h1l1 111 1 58 1 20v77l1 8v7l-1 5-1 89v68l-1 5h-1l-1-7z" fill="#FCD1C0"></path><path transform="translate(1183,895)" d="m0 0 91 91 8 5-1 3h-6l-9-6-13-11-10-11-7-8-4-4v-2h-2l-7-8-3-2v-2l-4-2v-2l-4-2v-2l-4-2-9-11-6-6v-2h-2l-6-8-6-2z" fill="#FCFCFC"></path><path transform="translate(863,895)" d="m0 0 4 4-7 11-8 8-8 7-12 12-8 7-37 37-11 9-8 4-3-1 5-5 8-7 84-84z" fill="#FCFCFC"></path><path transform="translate(865,892)" d="m0 0 4 2 4 5v2l5 2 7 7 2 1v2l4 2 9 11 5 5v2h2l4 5 2 1v2l4 2 8 8v2l4 2v2l4 2 7 8 1 3h2v2h2v2l2 1 9 10 4 4v2h2v2h2l7 8 8 8-1 2-77-77-8-7v-2l-4-2-9-10-15-15-1-3z" fill="#FDD5C4"></path><path transform="translate(893,927)" d="m0 0 8 6 98 98h-3l-16-16-14-11-11-10-8-7-38-38-9-11-7-9z" fill="#FDFDFD"></path><path transform="translate(1663,1494)" d="m0 0h1v315l-1 11h-1l-1-41 1-157z" fill="#BBA2AC"></path><path transform="translate(886,266)" d="m0 0 2 1h-3zm-2 2 2 2-1 2h-2l-3 9-7 7-1 2-4 2-6 9-9 10h-2l-2 4-6 7-6 3-8 8-4 5-2 6-6 7-11 8-3 2 1-4 14-15 9-11 9-9 7-8 9-10 7-8 12-13 12-14z" fill="#FEDDCE"></path><path transform="translate(776,450)" d="m0 0h1l1 62 2 4 2 1h103l45 2v1h-147l-5-3-2-4z" fill="#DCE2DE"></path><path transform="translate(1133,517)" d="m0 0h125l8 1v2h-145v-1z" fill="#DBE2DF"></path><path transform="translate(1161,1507)" d="m0 0 5 5 8 10 14 19 10 13 14 19 7 9-1 7-7 8-4 5-7 10-5 6-8 11-4 5-8 11-6 7-3 5-3 4h-2l-2 4v-3l45-60 12-17-1-5-10-12-10-14-13-17-21-28z" fill="#CBEAEE"></path><path transform="translate(979,536)" d="m0 0 1 2h2l-1 5-5 9-10 8-6 3h-7l1-3 9-6 5-4 9-13z" fill="#FEDECE"></path><path transform="translate(1638,1885)" d="m0 0v3l-7 10-12 14-13 12-11 8-1-3 8-7 5-4h2v-2l8-7 9-11 5-2 1-5 2-4z" fill="#FEE0D1"></path><path transform="translate(1278,382)" d="m0 0h6l1 2 2-2 4 10 1 6-6-1-7-3-1-6-1-4z" fill="#FBC8B5"></path><path transform="translate(1517,1471)" d="m0 0h133v1l-129 1-3 1-2 4v-6z" fill="#FEDFD0"></path><path transform="translate(1378,462)" d="m0 0 9 6 10 9 8 9-1 2-9-5-7-8-5-4-5-6z" fill="#FDD3C2"></path><path transform="translate(1126,953)" d="m0 0v3l-16 16-1 2h-2l-2 4h-2v2h-2v2h-2l-2 4-26 26-2-1 28-28 7-8z" fill="#F9FCFC"></path><path transform="translate(829,1581)" d="m0 0h2l2 6 16 21 14 19 4 5-1 2-9-11-12-16-8-10-8-9z" fill="#CBEBEF"></path><path transform="translate(629,569)" d="m0 0h2l2 6 2 1 2 4-1 6h2l2 10-4-5-6-12-2-9z" fill="#FDD2C2"></path><path transform="translate(1662,1445)" d="m0 0h1v26l-1 1h-10l4-2h2l2-17z" fill="#E9F9FC"></path><path transform="translate(1407,595)" d="m0 0 2 1-7 9-9 10-5 3 1-4 7-8 9-8z" fill="#FDD4C3"></path><path transform="translate(842,1488)" d="m0 0 1 2-8 11-4 5-6 8-6 7v-3l21-28z" fill="#CBEBEF"></path><path transform="translate(865,1457)" d="m0 0 1 3-9 11-6 9-7 8v-3l8-11 9-12z" fill="#CBEBEF"></path><path transform="translate(640,596)" d="m0 0 4 1 8 6 1 9-6-5-7-9z" fill="#FDD3C2"></path><path transform="translate(770,689)" d="m0 0 5 1 1 2v6h2l1 4-1 3h-2l-6-14z" fill="#FEE0D1"></path><path transform="translate(834,324)" d="m0 0 3 1-8 8-4 5-6 4 2-4z" fill="#FEDBCB"></path><path transform="translate(985,451)" d="m0 0 4 2 14 1-1 2h-17z" fill="#FEDFD0"></path><path transform="translate(807,756)" d="m0 0 4 1 5 4 3 9-5-5-7-8z" fill="#FFE0D1"></path><path transform="translate(1307,548)" d="m0 0 3 3-3 3-9 3 2-4z" fill="#FCD1C0"></path><path transform="translate(528,1470)" d="m0 0 3 2 2 14v8l-2-4-1-6-1-10-3-3z" fill="#FFE0D1"></path><path transform="translate(886,266)" d="m0 0 2 1h-3zm-2 2 2 2-1 2h-2v2l-8 7-2 1 2-4z" fill="#FED9C9"></path><path transform="translate(386,1469)" d="m0 0 14 2v1l-9 2-5-1z" fill="#FDFDFD"></path><path transform="translate(1062,444)" d="m0 0h1v11h-6l2-1 1-6z" fill="#FFE0D1"></path><path transform="translate(837,789)" d="m0 0 5 2 7 4v4l-4-2-8-7z" fill="#FEE0D2"></path><path transform="translate(826,778)" d="m0 0 4 1 5 3 1 6-7-6z" fill="#FFE0D1"></path><path transform="translate(766,678)" d="m0 0 5 2 1 5-3 3z" fill="#FEE0D2"></path><path transform="translate(779,387)" d="m0 0 4 4-4 2h-5l2-5z" fill="#FEDACB"></path><path transform="translate(690,452)" d="m0 0h2l-1 3-8 4-1-4z" fill="#FDD4C3"></path></svg>