<svg xmlns="http://www.w3.org/2000/svg" viewBox="0 0 2048 2048" width="512" height="512"><path transform="translate(540,285)" d="m0 0h1037l1 1 1 93v44l-1 162h45l1-20 1-3h53l14 2 15 5 13 7 12 9 9 9 9 13 7 14 4 14 2 15v833l-1 17-5 19-8 16-9 12-10 10-10 7-16 8-14 4-14 2h-490l1 2 4 27 5 22 9 27 13 27 7 11 10 14 5 6 4 2 57 1v45l-1 1-20 1h-506l-26-1-1-1v-45l54-1 7-2 8-10 12-18 11-21 8-21 6-20 5-24 3-20 1-2h-493l-17-3-13-5-16-9-13-12-8-9-8-14-5-12-3-12-1-9-1-101 1-748 4-18 5-12 8-14 12-13 9-8 14-8 12-5 12-3 8-1h123l1 2v21h45v-290l1-9z" fill="#F1CD57"></path><path transform="translate(369,562)" d="m0 0h123l1 2v44l-121 1-9 2-10 5-9 7-7 10-4 11-1 8v694h1384v-692l-2-12-5-11-6-8-7-6-12-6-12-2-48-1v-43l1-3h53l14 2 15 5 13 7 12 9 9 9 9 13 7 14 4 14 2 15v833l-1 17-5 19-8 16-9 12-10 10-10 7-16 8-14 4-14 2h-490l1 2 4 27 5 22 9 27 13 27 7 11 10 14 5 6 4 2 57 1v45l-1 1-20 1h-506l-26-1-1-1v-45l54-1 7-2 8-10 12-18 11-21 8-21 6-20 5-24 3-20 1-2h-493l-17-3-13-5-16-9-13-12-8-9-8-14-5-12-3-12-1-9-1-101 1-748 4-18 5-12 8-14 12-13 9-8 14-8 12-5 12-3z" fill="#010101"></path><path transform="translate(586,424)" d="m0 0h946v399l-5-1-18-8v117h-46v-116l-16 6-25 10-17 9-16 12-13 12-12 15-8 13-8 16-8 23-4 1-104-1-1 24h-67l-2-2-1-21-45-1v24h-67l-2-6v-17h-46l-1 23h-65l-4-2-1-21h-44l-1 17-1 6h-65l-2-1v-23l-129 1h-101l-2-1v-506z" fill="#FCFCFC"></path><path transform="translate(540,285)" d="m0 0h1037l1 1 1 93v468l17 16 10 12 10 15 8 16 6 16 4 17 2 14v26l-4 24-7 21-8 16-6 10-10 13-11 12-14 12-14 9-6 4-1 154-2 1h-40l-4-1-1-32v-64l1-89 29-14 12-8 12-11 8-10 8-14 6-15 4-17 1-17-3-21-4-13-8-17-9-12-7-8-2-1-1 87h-139v-88l-5 5-7 8-9 14-6 14-4 14-2 11v19l4 21 6 15 6 11 9 12 11 11 15 10 23 11 6 3 1 72v91l-1 22-2 1h-44l-1-45v-92l-1-19-15-9-16-13-6-5-7-8-9-12-8-13-8-16-6-18-5-26-2-1h-99l-2-1-1-5 1-41h108l3-12 8-20 8-14 8-11 9-11 8-8 14-11 14-9 19-9 26-10 6-1v116h46v-117l9 3 14 6v-399l-946 1-1 506h231v46l-1 1h-275l-1-1-1-425v-257l1-9z" fill="#010101"></path><path transform="translate(1714,1394)" d="m0 0 2 1v97l-3 12-6 10-5 6-10 7-12 4-12 1h-1292l-13-2-12-6-9-8-6-9-4-12v-100z" fill="#ABACAC"></path><path transform="translate(782,562)" d="m0 0h20l19 2 20 5 16 6 16 8 16 10 14 12 13 13 11 15 9 15 8 17 6 20 4 21 1 22-2 21-5 22-8 21-10 18-8 11-9 11-15 15-15 11-15 9-15 7-18 6-19 4-8 1h-31l-19-3-20-6-18-8-16-9-13-10-10-9-10-10-11-14-9-15-7-14-6-17-4-16-2-13-1-22 2-19 3-16 7-21 8-17 10-16 9-11 9-10 13-12 16-11 16-9 20-8 21-5z" fill="#010101"></path><path transform="translate(587,331)" d="m0 0h851l1 1v44l-1 1h-853v-45z" fill="#1AD8F7"></path><path transform="translate(553,1047)" d="m0 0h19l15 4 15 8 10 9 7 8 6 10 5 14 2 13-1 15-5 16-6 11-8 10-9 8-17 10-1 35-3 12-5 12-6 9-9 10-13 9-12 5-13 3h-60l-16-3-16-8-8-6-5-5-7-8-8-16-3-12-1-8v-51l2-15 4-12 6-11 9-11 12-9 12-6 11-3 8-1 32-1 7-13 7-9 9-9 13-8 15-5z" fill="#010101"></path><path transform="translate(908,1578)" d="m0 0h231l2 7 4 29 5 23 6 20 11 28 13 25 3 4v2h-318l2-5 6-10 12-26 9-25 6-23 4-21z" fill="#ABACAC"></path><path transform="translate(778,609)" d="m0 0h30l15 3 12 4 17 8 14 10 11 11-2 4-80 80-4-1-10-9-24-24-5 5-10 9-12 13-5 4 2 4 3 2v2l4 2 44 44 4 5 2 1v2l4 2 2 4 4 1 108-108 3 9 3 20v17l-2 15-5 17-8 17-10 14-11 12-9 8-20 12-19 7-13 3-9 1h-19l-17-3-16-5-16-8-13-9-12-11-8-9-10-16-7-16-5-20-1-6v-25l3-16 7-19 8-15 9-12 15-15 18-12 16-7 13-4z" fill="#4CC38B"></path><path transform="translate(724,470)" d="m0 0h669v45l-1 1h-668l-1-1z" fill="#010101"></path><path transform="translate(1118,931)" d="m0 0h43l1 1 1 21v117h92l1 73 15 8 13 11 7 10 7 15 3 12v19l-4 15-7 14-8 10-9 8-12 7-15 5-7 1h-13l-16-3-16-8-9-7-8-8-7-11-5-12-2-8-1-16 2-14 5-13 7-12 6-7 10-8 12-7 3-1 1-7-1-19-91-1v-160l1-24z" fill="#010101"></path><path transform="translate(886,931)" d="m0 0h44l1 1 1 21v128l-1 35-4 1h-86l-1 2v23l17 10 12 11 7 10 6 13 3 11 1 15-3 16-5 13-9 13-9 9-13 8-13 5-10 2h-13l-16-3-12-5-13-9-7-7-7-10-6-13-3-13v-19l4-15 8-16 11-12 13-9 9-5 1-71 1-1 91-1v-137z" fill="#010101"></path><path transform="translate(1414,890)" d="m0 0h2v88h139v-88l5 3 11 13 8 14 5 11 4 16 2 16-1 17-4 17-6 15-6 11-10 13-9 9-14 10-24 12-7 2v153l-1 10h-44l-1-8v-83l-1-72-20-9-13-7-12-9-12-12-10-15-7-15-4-15-2-12v-19l4-19 6-16 8-14 9-11z" fill="#F76177"></path><path transform="translate(1031,931)" d="m0 0h10l6 1v211l6 2 13 8 11 10 9 14 5 13 2 8v21l-4 15-8 15-11 12-13 9-12 5-14 3h-12l-16-3-12-5-12-8-9-9-9-14-5-14-1-5v-23l5-17 7-12 9-10 8-7 15-8 1-2 1-209z" fill="#010101"></path><path transform="translate(1176,747)" d="m0 0h89l15 4 15 8 12 11 9 13 5 12 3 14v15l-4 17-8 15-9 10-8 7-15 8-15 4-27 1h-27l-35-1-13-3-16-8-13-11-10-14-5-13-3-16 1-15 3-12 8-16 11-13 13-9 11-5z" fill="#010101"></path><path transform="translate(1025,654)" d="m0 0h437l1 3-1 43-1 1h-395l-42-1v-45z" fill="#010101"></path><path transform="translate(1117,562)" d="m0 0h90l140 1v44l-1 1h-103l-126-1-1-1z" fill="#010101"></path><path transform="translate(464,1140)" d="m0 0h32l3 4 6 11 9 10 9 8 15 9 1 1v29l-4 10-8 7-9 3h-51l-9-3-6-5-4-7-1-5v-54l3-8 5-6 5-3z" fill="#F86077"></path><path transform="translate(1182,793)" d="m0 0h76l9 3 5 5 5 8 1 3v8l-4 9-4 5-8 4-3 1h-79l-8-4-7-8-2-5v-12l5-9 6-5z" fill="#ABACAC"></path><path transform="translate(908,1439)" d="m0 0h47v47h-47z" fill="#010101"></path><path transform="translate(1093,1439)" d="m0 0h46l1 1v46h-47z" fill="#010101"></path><path transform="translate(1e3 1439)" d="m0 0h46v47h-46l-1-1v-41z" fill="#010101"></path><path transform="translate(1025,562)" d="m0 0h15l29 1 1 1v43l-1 1h-29l-16-1z" fill="#010101"></path><path transform="translate(1486,332)" d="m0 0h45l1 2v42l-1 1h-45z" fill="#F86077"></path><path transform="translate(1394,562)" d="m0 0h17l28 1 1 2-1 43h-28l-17-1z" fill="#010101"></path><path transform="translate(1226,1186)" d="m0 0h12l8 4 6 7 3 7v9l-5 10-7 6-4 2h-14l-8-4-5-6-4-10 1-9 6-10 8-5z" fill="#19D8F8"></path><path transform="translate(1018,1186)" d="m0 0h12l8 4 7 8 2 5v11l-4 8-5 5-7 4h-14l-6-3-5-4-5-10v-11l4-8 8-7z" fill="#19D8F9"></path><path transform="translate(810,1186)" d="m0 0h12l8 4 7 8 2 4v12l-4 8-5 5-4 3-3 1h-14l-9-5-5-7-2-5v-11l5-9 7-6z" fill="#19D8F8"></path><path transform="translate(558,1093)" d="m0 0h7l9 3 6 5 4 8 1 4v7l-3 8-6 7-9 4h-10l-9-4-6-7-3-10 1-9 5-8 6-5z" fill="#4CC48B"></path></svg>